<svg width="38" height="38" viewBox="0 0 38 38" fill="none" xmlns="http://www.w3.org/2000/svg">
<g id="emo-4">
<g id="Group 3">
<mask id="mask0_821_39" style="mask-type:luminance" maskUnits="userSpaceOnUse" x="0" y="0" width="38" height="38">
<path id="Clip 2" fill-rule="evenodd" clip-rule="evenodd" d="M0 0H38V37.9999H0V0Z" fill="white"/>
</mask>
<g mask="url(#mask0_821_39)">
<path id="Fill 1" fill-rule="evenodd" clip-rule="evenodd" d="M18.8347 29.0415C19.9975 29.0263 20.9608 28.8515 21.8633 28.4012C23.0033 27.8426 23.9001 27.0389 24.3675 25.8248C24.5157 25.4448 24.434 25.1446 24.1509 24.9888C23.8678 24.8332 23.5524 24.9166 23.313 25.2643C23.0187 25.6945 22.6429 26.0631 22.2072 26.3492C20.9623 27.1615 19.4524 27.4628 17.9911 27.1909C16.6231 26.9707 15.4508 26.3796 14.6452 25.194C14.4759 24.9151 14.1125 24.8262 13.8335 24.9957C13.5924 25.1422 13.4883 25.4384 13.585 25.7034C13.7247 26.1425 13.9464 26.5514 14.2386 26.908C15.466 28.4126 17.1171 28.9788 18.8328 29.0434L18.8347 29.0415ZM10.5925 16.758C8.67752 16.758 7.12503 18.3105 7.12503 20.2257C7.12503 22.1407 8.67752 23.6932 10.5925 23.6932C12.5075 23.6932 14.06 22.1407 14.06 20.2257V20.2181C14.0579 18.3071 12.5072 16.7597 10.5963 16.7618H10.5925V16.758ZM27.4208 16.758C25.5043 16.758 23.9505 18.3118 23.9505 20.2284C23.9505 22.1451 25.5043 23.6987 27.4208 23.6987C29.3374 23.6987 30.8912 22.1451 30.8912 20.2284C30.8912 18.3118 29.3374 16.758 27.4208 16.758ZM18.9601 38C8.49493 38 0.0285281 29.5184 2.81194e-05 19.0323C-0.0178319 8.53901 8.47441 0.0178875 18.9677 2.75254e-05C29.4612 -0.0176425 37.9822 8.47441 38 18.9677C38.0179 29.4612 29.5258 37.9824 19.0323 38H18.9601Z" fill="#FECA00"/>
</g>
</g>
<path id="Fill 4" fill-rule="evenodd" clip-rule="evenodd" d="M18.8326 29.0453C17.1226 28.9807 15.4677 28.4145 14.2403 26.9097C13.948 26.5532 13.7263 26.1441 13.5867 25.7051C13.4748 25.3984 13.6326 25.0592 13.9393 24.9473C14.2042 24.8506 14.5006 24.9547 14.6469 25.1957C15.4525 26.3832 16.6248 26.9724 17.9928 27.1928C19.4541 27.4648 20.964 27.1633 22.2089 26.3509C22.6445 26.0647 23.0202 25.6963 23.3147 25.266C23.556 24.9183 23.8505 24.8233 24.1526 24.9907C24.4547 25.1579 24.5155 25.4429 24.3692 25.8267C23.9018 27.0427 23.005 27.8445 21.865 28.4031C20.9606 28.8477 19.9954 29.0301 18.8326 29.0453ZM10.5923 16.7618C12.5078 16.7659 14.0573 18.322 14.0531 20.2378C14.0489 22.1534 12.4926 23.7028 10.5771 23.6985C8.66149 23.6945 7.11204 22.138 7.11622 20.2224C7.1204 18.307 8.67669 16.7576 10.5923 16.7618ZM27.4185 16.7618C29.3346 16.7669 30.8837 18.3245 30.8784 20.2407C30.8731 22.1568 29.3156 23.7057 27.3995 23.7004C25.4833 23.6952 23.9345 22.1376 23.9398 20.2217V20.2063C23.9502 18.2949 25.5073 16.7532 27.4185 16.7618Z" fill="#171615"/>
</g>
</svg>
