<svg width="38" height="38" viewBox="0 0 38 38" fill="none" xmlns="http://www.w3.org/2000/svg">
<g id="emo-2">
<g id="Group 3">
<mask id="mask0_821_10" style="mask-type:luminance" maskUnits="userSpaceOnUse" x="0" y="0" width="38" height="38">
<path id="Clip 2" fill-rule="evenodd" clip-rule="evenodd" d="M0 0H38V38H0V0Z" fill="white"/>
</mask>
<g mask="url(#mask0_821_10)">
<path id="Fill 1" fill-rule="evenodd" clip-rule="evenodd" d="M27.835 15.8905H28.139L28.519 15.8525C29.7745 15.6889 30.8974 14.9887 31.597 13.9335C31.749 13.6865 31.787 13.4395 31.597 13.2115C31.407 12.9835 31.16 12.9835 30.894 13.1165C30.1363 13.5267 29.3328 13.8457 28.5 14.0665C27.7182 14.2333 26.9238 14.3349 26.125 14.3705C25.84 14.3705 25.555 14.4085 25.46 14.7505C25.365 15.0925 25.65 15.2825 25.897 15.4155C26.4908 15.7394 27.1586 15.903 27.835 15.8905ZM7.011 13.3635C7.01537 13.6445 7.04729 13.9245 7.106 14.1995C7.163 14.5035 7.296 14.7125 7.619 14.7315C7.942 14.7505 8.113 14.5415 8.189 14.2565C8.66286 12.7082 9.4886 11.2904 10.602 10.1145C10.792 9.88646 11.077 9.63946 10.849 9.29746C10.621 8.95546 10.279 9.08846 9.975 9.16446C8.20686 9.80742 7.02468 11.4819 7.011 13.3635ZM21.28 24.4215C20.2958 24.4023 19.3205 24.6103 18.43 25.0295C16.8313 25.7078 15.6049 27.0452 15.067 28.6965C14.953 29.0765 15.029 29.3045 15.276 29.4565C15.523 29.6085 15.77 29.5325 16.036 29.2285C16.6109 28.55 17.2541 27.9325 17.955 27.3855C19.285 26.3785 20.824 25.8465 22.477 25.6375C22.838 25.5995 23.009 25.4095 23.028 25.1245C23.047 24.8395 22.838 24.6305 22.496 24.5545C22.0983 24.4564 21.6895 24.4118 21.28 24.4215ZM14.06 20.2225C14.06 18.3021 12.5033 16.7455 10.583 16.7455C8.66267 16.7455 7.106 18.3023 7.106 20.2225C7.106 22.143 8.66267 23.6995 10.583 23.6995H10.602C12.5149 23.6888 14.06 22.1354 14.06 20.2225ZM23.94 20.2035C23.9506 22.1027 25.4986 23.6337 27.398 23.6235C29.2972 23.6128 30.8285 22.0649 30.8178 20.1655C30.8076 18.2662 29.2592 16.735 27.36 16.7455C25.4756 16.7559 23.9505 18.281 23.94 20.1655V20.2035ZM38 19.0065C37.9964 29.4998 29.4869 38.0034 18.9935 38C8.50022 37.9964 -0.00360885 29.4871 1.14895e-06 18.9937C0.00361115 8.50022 8.51295 -0.00341897 19.0065 1.03123e-06C19.1689 1.03123e-06 19.3316 0.00209103 19.494 0.00646103C29.7941 0.274361 38.0036 8.70295 38 19.0065Z" fill="#FECA00"/>
</g>
</g>
<path id="Fill 4" fill-rule="evenodd" clip-rule="evenodd" d="M14.0595 20.2224C14.0491 22.1425 12.4839 23.6908 10.5635 23.6802C8.64319 23.6697 7.09507 22.1043 7.10552 20.1842C7.11616 18.2638 8.68119 16.7157 10.6015 16.7264C12.5219 16.7368 14.07 18.302 14.0595 20.2222V20.2224ZM23.9395 20.2032C23.9184 18.3041 25.4409 16.7473 27.34 16.7264C27.3656 16.726 27.3911 16.726 27.4165 16.7264H27.4355C29.3559 16.7264 30.9125 18.283 30.9125 20.2032C30.9123 22.1237 29.3557 23.6804 27.4353 23.6802C25.5152 23.6802 23.9585 22.1235 23.9585 20.2032V20.1844L23.9395 20.2032Z" fill="#171615"/>
<path id="Fill 6" fill-rule="evenodd" clip-rule="evenodd" d="M21.2799 24.4214C21.6829 24.4148 22.0851 24.4594 22.4769 24.5544C22.8569 24.6304 23.0279 24.8204 23.0089 25.1244C22.9899 25.4284 22.8189 25.5804 22.4579 25.6374C20.8216 25.8059 19.2602 26.4096 17.9359 27.3854C17.2424 27.9275 16.6059 28.5387 16.0359 29.2094C15.7509 29.5134 15.5229 29.5894 15.2759 29.4374C15.0289 29.2854 14.9339 29.0574 15.0479 28.6774C15.6179 26.9674 16.7959 25.7894 18.4109 25.0294C19.3075 24.6082 20.2894 24.4001 21.2799 24.4214Z" fill="#181715"/>
<path id="Fill 8" fill-rule="evenodd" clip-rule="evenodd" d="M27.8164 15.8906C27.1464 15.9009 26.485 15.7371 25.8972 15.4156C25.6314 15.2826 25.3842 15.1116 25.4604 14.7506C25.5364 14.3896 25.8404 14.3706 26.1064 14.3706C26.9055 14.3292 27.7001 14.2211 28.4814 14.0476C29.3132 13.8327 30.1167 13.5204 30.8754 13.1166C31.1414 12.9836 31.3692 12.9646 31.5784 13.2116C31.7872 13.4586 31.7304 13.6866 31.5784 13.9146C30.8125 15.0932 29.5245 15.8291 28.1204 15.8906H27.8164ZM6.99219 13.3636C6.99219 11.5016 8.28438 9.67763 9.95638 9.18363C10.2604 9.08863 10.6022 8.93663 10.8304 9.29763C11.0584 9.65863 10.7922 9.88663 10.5834 10.1146C9.47055 11.2909 8.64481 12.7085 8.17038 14.2566C8.09438 14.5416 7.92338 14.7506 7.60038 14.7316C7.27719 14.7126 7.14438 14.5036 7.08719 14.1996C7.02924 13.9245 6.99732 13.6446 6.99219 13.3636Z" fill="#191715"/>
</g>
</svg>
