<svg width="38" height="38" viewBox="0 0 38 38" fill="none" xmlns="http://www.w3.org/2000/svg">
<g id="emo-3">
<g id="Group 3">
<mask id="mask0_821_27" style="mask-type:luminance" maskUnits="userSpaceOnUse" x="0" y="0" width="38" height="38">
<path id="Clip 2" fill-rule="evenodd" clip-rule="evenodd" d="M0 0H37.9999V38H0V0Z" fill="white"/>
</mask>
<g mask="url(#mask0_821_27)">
<path id="Fill 1" fill-rule="evenodd" clip-rule="evenodd" d="M19.0219 25.232C17.4095 25.2088 15.7974 25.2913 14.1958 25.479C13.8159 25.5362 13.5878 25.764 13.5878 26.125C13.5878 26.4862 13.8159 26.695 14.2148 26.733L15.2408 26.847C18.0688 27.0725 20.9116 27.0406 23.7339 26.752C24.1708 26.695 24.3988 26.4862 24.3988 26.125C24.3988 25.764 24.1898 25.5362 23.7719 25.479C22.1952 25.3 20.6084 25.2238 19.0219 25.2512V25.232ZM30.8778 20.2162C30.8883 18.2959 29.34 16.7307 27.4198 16.7202C25.4995 16.7098 23.9345 18.2579 23.9239 20.178C23.9136 22.0985 25.4617 23.6636 27.3819 23.674C27.3946 23.6742 27.4071 23.6742 27.4198 23.674C29.3295 23.674 30.8778 22.1257 30.8778 20.2162ZM7.12785 20.2162C7.1383 22.1363 8.70352 23.6845 10.6238 23.674C12.5442 23.6634 14.0923 22.0982 14.0819 20.1778C14.0712 18.2577 12.5062 16.7096 10.5858 16.72C8.67293 16.7305 7.12785 18.2841 7.12785 20.197V20.2162ZM19.0028 1.20982e-05C29.4962 0.0015321 38.0015 8.50935 38 19.0029C37.9985 29.4962 29.4907 38.0015 18.9973 38C8.50402 37.9985 -0.0015198 29.4907 2.03694e-07 18.9974C0.000190204 18.8906 0.000950204 18.7838 0.0028502 18.677C0.16891 8.30567 8.63018 -0.0115779 19.0028 1.20982e-05Z" fill="#FECA00"/>
</g>
</g>
<path id="Fill 4" fill-rule="evenodd" clip-rule="evenodd" d="M30.8781 20.2163C30.8675 22.1364 29.3025 23.6847 27.3821 23.6741C25.4618 23.6636 23.9137 22.0982 23.9241 20.1781C23.9348 18.2577 25.4998 16.7096 27.4201 16.7203C29.3331 16.7307 30.8781 18.2843 30.8781 20.1971V20.2163ZM7.12814 20.2163C7.10724 18.3066 8.63826 16.7414 10.548 16.7205C10.5607 16.7203 10.5734 16.7203 10.5861 16.7203C12.5065 16.7096 14.0715 18.2579 14.0821 20.1783C14.0926 22.0984 12.5445 23.6636 10.6241 23.6741C8.70381 23.6845 7.13878 22.1364 7.12814 20.2161C7.12814 20.2098 7.12814 20.2035 7.12814 20.1971V20.2163Z" fill="#171615"/>
<path id="Fill 6" fill-rule="evenodd" clip-rule="evenodd" d="M19.003 25.2509C20.5901 25.2304 22.1766 25.3129 23.753 25.4979C24.19 25.5359 24.418 25.7637 24.399 26.1249C24.38 26.4859 24.171 26.6949 23.734 26.7517C20.9123 27.0466 18.0695 27.0848 15.241 26.8659L14.215 26.7517C13.835 26.6949 13.607 26.4667 13.588 26.1437C13.569 25.8209 13.797 25.5359 14.196 25.4979C15.7975 25.3102 17.4097 25.2276 19.022 25.2509H19.003Z" fill="#191715"/>
</g>
</svg>
