<svg width="38" height="38" viewBox="0 0 38 38" fill="none" xmlns="http://www.w3.org/2000/svg">
<g id="emo-5">
<g id="Group 3">
<mask id="mask0_821_51" style="mask-type:luminance" maskUnits="userSpaceOnUse" x="0" y="0" width="38" height="38">
<path id="Clip 2" fill-rule="evenodd" clip-rule="evenodd" d="M0 0H38V38H0V0Z" fill="white"/>
</mask>
<g mask="url(#mask0_821_51)">
<path id="Fill 1" fill-rule="evenodd" clip-rule="evenodd" d="M19 30.248C19.4317 30.2529 19.8615 30.1887 20.273 30.058C22.4251 29.3354 23.7741 27.201 23.503 24.947C23.465 24.757 23.37 24.795 23.256 24.833C22.4665 25.0555 21.659 25.2083 20.843 25.2888C18.8054 25.5079 16.7451 25.3532 14.763 24.833C14.573 24.776 14.573 24.833 14.554 24.985C14.4926 25.5048 14.5183 26.0315 14.63 26.543C15.0243 28.6607 16.8467 30.2136 19 30.267V30.248ZM34.504 17.708C34.5376 16.9535 34.3461 16.2061 33.953 15.561C33.193 14.288 32.053 13.566 30.552 13.604C29.507 13.642 28.652 14.174 27.93 14.896C27.778 15.029 27.74 14.991 27.645 14.858C27.4153 14.535 27.1402 14.247 26.828 14.003C25.935 13.281 24.928 12.996 23.788 13.281C21.5621 13.8928 20.236 16.1739 20.805 18.411C21.0758 19.3927 21.5057 20.3235 22.078 21.166C23.3928 23.1285 24.9937 24.8834 26.828 26.372C26.961 26.505 27.075 26.467 27.208 26.372C28.3377 25.6622 29.4169 24.875 30.438 24.016C31.7049 22.9716 32.8069 21.7417 33.706 20.368C34.2488 19.5882 34.5346 18.658 34.523 17.708H34.504ZM17.29 17.423C17.3215 16.0921 16.7229 14.8242 15.675 14.003C14.7022 13.156 13.3357 12.9282 12.141 13.414C11.4331 13.7011 10.8252 14.19 10.393 14.82C10.222 15.029 10.146 15.01 10.013 14.82C9.84428 14.6507 9.65979 14.4979 9.462 14.364C8.436 13.623 7.315 13.357 6.08 13.832C3.724 14.725 2.793 17.575 3.99 19.836C4.63733 21.0089 5.46421 22.0732 6.441 22.99C7.771 24.2721 9.23628 25.406 10.811 26.372C10.9233 26.4668 11.0911 26.4524 11.1859 26.3403C11.1876 26.3382 11.1893 26.3361 11.191 26.3338C12.2121 25.4856 13.171 24.5649 14.06 23.5788C15.1704 22.3752 16.0926 21.011 16.796 19.532C17.1182 18.8746 17.2934 18.1549 17.309 17.423H17.29ZM19 38C8.50649 38 0 29.4933 0 19C0 8.50649 8.50649 0 19 0C29.4935 0 38 8.50649 38 19C38.0209 29.4724 29.5486 37.9789 19.076 38H19Z" fill="#FECA00"/>
</g>
</g>
<path id="Fill 4" fill-rule="evenodd" clip-rule="evenodd" d="M34.5226 17.7079C34.5397 18.656 34.2606 19.5858 33.7246 20.3679C32.831 21.7403 31.7357 22.9699 30.4756 24.0159C29.4485 24.8756 28.3628 25.6628 27.2266 26.3719C27.0934 26.4479 26.9796 26.5049 26.8466 26.3719C25.0099 24.8787 23.4084 23.1174 22.0966 21.1469C21.5251 20.304 21.0949 19.3734 20.8234 18.3919C20.2726 16.1119 21.6216 13.8129 23.8256 13.2619C24.9656 12.9769 25.9534 13.2619 26.8466 13.9839C27.1601 14.2337 27.4354 14.5282 27.6634 14.8579C27.7584 14.9909 27.7966 15.0099 27.9484 14.8769C28.6706 14.1549 29.5256 13.6229 30.5706 13.6039C32.0906 13.5469 33.1926 14.2879 33.9716 15.5609C34.3712 16.2037 34.5697 16.9515 34.5416 17.7079H34.5226ZM17.2896 17.4229C17.2771 18.147 17.1087 18.8599 16.7956 19.5129C16.0962 21.0053 15.1736 22.3828 14.0596 23.5979C13.1771 24.5893 12.2246 25.5165 11.2096 26.3719C11.1123 26.4819 10.9442 26.4922 10.8342 26.3951C10.8325 26.3935 10.8311 26.3922 10.8296 26.3909C9.25393 25.4188 7.78865 24.2785 6.4596 22.9899C5.47635 22.0741 4.64282 21.0099 3.9896 19.8359C2.7926 17.5559 3.7236 14.7059 6.0796 13.8319C7.2956 13.3569 8.4166 13.6229 9.4616 14.3639C9.6535 14.5049 9.83172 14.6639 9.9936 14.8389C10.1456 14.9909 10.2406 15.0289 10.3736 14.8199C10.8108 14.187 11.4256 13.6977 12.1406 13.4139C13.3387 12.9286 14.7073 13.1481 15.6936 13.9839C16.7415 14.8051 17.3401 16.0729 17.3086 17.4039L17.2896 17.4229Z" fill="#E84047"/>
<path id="Fill 6" fill-rule="evenodd" clip-rule="evenodd" d="M18.9996 30.2668C16.8463 30.2136 15.0238 28.6606 14.6296 26.5428C14.5122 26.0387 14.48 25.5185 14.5346 25.0038C14.5536 24.8518 14.5726 24.776 14.7436 24.8138C16.7245 25.3405 18.7849 25.5016 20.8236 25.2888C21.6398 25.2081 22.4473 25.0553 23.2366 24.8328C23.3696 24.8138 23.4646 24.7568 23.4836 24.966C23.7701 27.2232 22.4156 29.3668 20.2536 30.0768C19.8481 30.2058 19.425 30.2699 18.9996 30.2668Z" fill="#171615"/>
</g>
</svg>
